<svg width="167" height="167" viewBox="0 0 167 167" fill="none" xmlns="http://www.w3.org/2000/svg">
<path fill-rule="evenodd" clip-rule="evenodd" d="M83.3099 0H83.7069C104.642 0.0486449 123.768 7.79256 138.398 20.5499C139.435 21.4537 138.778 23.1128 137.402 23.1128L29.6148 23.1127C28.2387 23.1127 27.582 21.4537 28.6188 20.5497C43.2491 7.79255 62.3747 0.0486418 83.3099 0Z" fill="white" fill-opacity="0.16"/>
<path fill-rule="evenodd" clip-rule="evenodd" d="M51.0168 106.104C50.4193 105.253 49.4574 104.719 48.4168 104.719H5.22739C3.97621 104.719 3.06397 105.904 3.41902 107.102C13.6446 141.615 45.6269 166.796 83.4977 166.796C121.368 166.796 153.351 141.615 163.576 107.102C163.931 105.904 163.019 104.719 161.768 104.719L118.579 104.719C117.539 104.719 116.577 105.253 115.979 106.104C108.809 116.316 96.9343 122.992 83.4982 122.992C70.062 122.992 58.187 116.316 51.0168 106.104Z" fill="white" fill-opacity="0.16"/>
<path fill-rule="evenodd" clip-rule="evenodd" d="M114.943 59.2772C115.707 60.2689 116.87 60.8906 118.122 60.8906H161.408C162.671 60.8906 163.585 59.6867 163.208 58.4828C159.937 48.0309 154.662 38.4632 147.833 30.2282C147.264 29.5429 146.415 29.1558 145.524 29.1558H21.4702C20.5791 29.1558 19.7299 29.5429 19.1614 30.2282C12.332 38.4632 7.05714 48.0309 3.78609 58.4828C3.40931 59.6867 4.32372 60.8906 5.58662 60.8906H48.8726C50.1249 60.8906 51.2876 60.2689 52.0509 59.2772C59.2987 49.8636 70.6886 43.7967 83.4972 43.7967C96.3059 43.7967 107.696 49.8636 114.943 59.2772Z" fill="white" fill-opacity="0.16"/>
<path fill-rule="evenodd" clip-rule="evenodd" d="M121.807 98.6875C120.989 98.6875 120.434 97.8553 120.716 97.089C122.287 92.8259 123.145 88.2184 123.145 83.4107C123.145 78.1695 122.125 73.1662 120.274 68.5877C119.961 67.8157 120.518 66.9526 121.351 66.9526H163.811C164.72 66.9526 165.505 67.5933 165.667 68.4869C166.543 73.3294 167 78.3173 167 83.412C167 88.0831 166.616 92.6645 165.876 97.1264C165.726 98.0325 164.935 98.6875 164.016 98.6875H121.807ZM46.284 97.089C46.5664 97.8553 46.011 98.6875 45.1934 98.6875H2.98444C2.06477 98.6875 1.27367 98.0325 1.12356 97.1264C0.384481 92.6645 0 88.0831 0 83.412C0 78.3173 0.457371 73.3294 1.33334 68.4869C1.49499 67.5933 2.28022 66.9526 3.18943 66.9526H45.6486C46.4824 66.9526 47.0387 67.8157 46.7264 68.5877C44.8746 73.1662 43.8552 78.1695 43.8552 83.4107C43.8552 88.2184 44.7129 92.8259 46.284 97.089Z" fill="white" fill-opacity="0.16"/>
</svg>
